<?xml version="1.0" encoding="UTF-8" standalone="no"?>
<!-- Created with Inkscape (http://www.inkscape.org/) -->

<svg
   width="104mm"
   height="48mm"
   viewBox="0 0 104 48"
   version="1.1"
   id="svg1"
   xml:space="preserve"
   xmlns:xlink="http://www.w3.org/1999/xlink"
   xmlns="http://www.w3.org/2000/svg"
   xmlns:svg="http://www.w3.org/2000/svg"><defs
     id="defs1"><linearGradient
       id="swatch33"><stop
         style="stop-color:#e5e5e5;stop-opacity:1;"
         offset="0"
         id="stop33" /></linearGradient><linearGradient
       id="swatch29"><stop
         style="stop-color:#1a1a1a;stop-opacity:1;"
         offset="0"
         id="stop29" /></linearGradient><linearGradient
       id="swatch27"><stop
         style="stop-color:#cffccf;stop-opacity:1;"
         offset="0"
         id="stop27" /></linearGradient><linearGradient
       id="swatch26"><stop
         style="stop-color:#2ec728;stop-opacity:1;"
         offset="0"
         id="stop26" /></linearGradient><linearGradient
       id="swatch25"><stop
         style="stop-color:#0f9109;stop-opacity:1;"
         offset="0"
         id="stop25" /></linearGradient><linearGradient
       id="swatch24"><stop
         style="stop-color:#f90000;stop-opacity:1;"
         offset="0"
         id="stop24" /></linearGradient><linearGradient
       id="swatch23"><stop
         style="stop-color:#37c830;stop-opacity:1;"
         offset="0"
         id="stop23" /></linearGradient><linearGradient
       id="swatch18"><stop
         style="stop-color:#ff811a;stop-opacity:1;"
         offset="0"
         id="stop18" /></linearGradient><linearGradient
       xlink:href="#swatch33"
       id="linearGradient18"
       x1="35.856766"
       y1="18.352755"
       x2="43.452156"
       y2="18.352755"
       gradientUnits="userSpaceOnUse" /><linearGradient
       xlink:href="#swatch33"
       id="linearGradient22"
       x1="34.798431"
       y1="10.438791"
       x2="41.576183"
       y2="10.438791"
       gradientUnits="userSpaceOnUse" /><linearGradient
       xlink:href="#swatch33"
       id="linearGradient23"
       x1="12.798433"
       y1="19.67024"
       x2="35.569553"
       y2="19.67024"
       gradientUnits="userSpaceOnUse" /><linearGradient
       xlink:href="#swatch33"
       id="linearGradient25"
       x1="17.922922"
       y1="33.805099"
       x2="40.722256"
       y2="33.805099"
       gradientUnits="userSpaceOnUse" /><linearGradient
       xlink:href="#swatch33"
       id="linearGradient26"
       x1="20.456181"
       y1="39.305103"
       x2="38.188995"
       y2="39.305103"
       gradientUnits="userSpaceOnUse"
       gradientTransform="matrix(1,0,0,1.0714286,0,-3.0579489)" /><linearGradient
       xlink:href="#swatch33"
       id="linearGradient29"
       x1="45.942238"
       y1="10.549008"
       x2="87.237068"
       y2="10.549008"
       gradientUnits="userSpaceOnUse" /><linearGradient
       xlink:href="#swatch33"
       id="linearGradient30"
       x1="48.844921"
       y1="21.598486"
       x2="75.929794"
       y2="21.598486"
       gradientUnits="userSpaceOnUse" /><linearGradient
       xlink:href="#swatch33"
       id="linearGradient31"
       x1="52.628109"
       y1="28.605009"
       x2="58.396721"
       y2="28.605009"
       gradientUnits="userSpaceOnUse" /><linearGradient
       xlink:href="#swatch29"
       id="linearGradient33"
       x1="3"
       y1="23.984922"
       x2="46.877144"
       y2="23.984922"
       gradientUnits="userSpaceOnUse" /><linearGradient
       xlink:href="#swatch29"
       id="linearGradient34"
       x1="3"
       y1="32.111176"
       x2="46.877144"
       y2="32.111176"
       gradientUnits="userSpaceOnUse" /><linearGradient
       xlink:href="#swatch29"
       id="linearGradient35"
       x1="3"
       y1="40.237431"
       x2="46.877144"
       y2="40.237431"
       gradientUnits="userSpaceOnUse" /><linearGradient
       xlink:href="#swatch29"
       id="linearGradient36"
       x1="3"
       y1="15.85867"
       x2="46.877144"
       y2="15.85867"
       gradientUnits="userSpaceOnUse" /><linearGradient
       xlink:href="#swatch29"
       id="linearGradient37"
       x1="3"
       y1="7.7324171"
       x2="46.877144"
       y2="7.7324171"
       gradientUnits="userSpaceOnUse" /><linearGradient
       xlink:href="#swatch33"
       id="linearGradient1"
       gradientUnits="userSpaceOnUse"
       x1="38.164791"
       y1="42.45388"
       x2="93.554375"
       y2="42.45388" /><linearGradient
       xlink:href="#swatch33"
       id="linearGradient4"
       gradientUnits="userSpaceOnUse"
       x1="14.603477"
       y1="17.186485"
       x2="27.799812"
       y2="17.186485" /></defs><g
     id="layer3"
     transform="matrix(2.1879273,0,0,0.98505757,-2.563782,0.36639539)"
     style="display:inline"><path
       style="display:inline;fill:none;fill-rule:nonzero;stroke:url(#linearGradient37);stroke-width:1.00141;stroke-linecap:butt;stroke-miterlimit:2;stroke-dasharray:none"
       d="M 3,7.732417 H 46.877143"
       id="path4" /><path
       style="display:inline;fill:none;fill-rule:nonzero;stroke:url(#linearGradient36);stroke-width:1.00141;stroke-linecap:butt;stroke-miterlimit:2;stroke-dasharray:none"
       d="M 3,15.85867 H 46.877142"
       id="path4-0" /><path
       style="display:inline;fill:none;fill-rule:nonzero;stroke:url(#linearGradient33);stroke-width:1.00141;stroke-linecap:butt;stroke-miterlimit:2;stroke-dasharray:none"
       d="M 3,23.984923 H 46.877142"
       id="path4-2" /><path
       style="display:inline;fill:none;fill-rule:nonzero;stroke:url(#linearGradient34);stroke-width:1.00141;stroke-linecap:butt;stroke-miterlimit:2;stroke-dasharray:none"
       d="M 3,32.111177 H 46.877142"
       id="path4-21" /><path
       style="display:inline;fill:none;fill-rule:nonzero;stroke:url(#linearGradient35);stroke-width:1.00141;stroke-linecap:butt;stroke-miterlimit:2;stroke-dasharray:none"
       d="M 3,40.23743 H 46.877142"
       id="path4-7" /></g><g
     id="layer2"
     style="display:inline"
     transform="translate(-3.2984327,1.404481)"><path
       style="display:inline;fill:none;fill-opacity:0;stroke:url(#linearGradient23);stroke-width:2.188;stroke-linecap:butt;stroke-linejoin:miter"
       d="m 24.529149,34.717492 1.838119,-4.985178 5.292172,-5.534036 2.749756,-7.585535 -2.844575,-8.2492688 -8.249269,-2.9393942 -6.637343,3.0342132 -2.5382,3.3263658 -0.217256,4.195003 1.723862,1.190239"
       id="path2" /><g
       id="layer1"
       transform="matrix(0.7894968,0,0,1,4.1483427,-1.7091427)"
       style="display:inline"><rect
         style="display:inline;fill:url(#linearGradient26);fill-opacity:1;stroke:none;stroke-width:2.62727;stroke-linecap:round;stroke-linejoin:miter;stroke-dasharray:none;stroke-opacity:1"
         id="rect46-6-6-6-7"
         width="17.732815"
         height="7.5"
         x="20.456181"
         y="35.304661" /><rect
         style="display:inline;fill:url(#linearGradient25);fill-opacity:1;fill-rule:nonzero;stroke:none;stroke-width:2.17558;stroke-linecap:round;stroke-linejoin:miter;stroke-dasharray:none;stroke-opacity:1"
         id="rect46-6-6-6-7-9"
         width="22.799332"
         height="4"
         x="17.922922"
         y="31.805101" /><g
         id="layer4"
         transform="translate(2.5453769,-2.3924753)"
         style="display:inline;opacity:0.6;mix-blend-mode:hard-light"><rect
           style="opacity:1;mix-blend-mode:normal;fill:none;stroke:none;stroke-width:2.25756;stroke-linejoin:round;stroke-dasharray:none;stroke-opacity:1"
           id="rect10"
           width="3.166574"
           height="7"
           x="28.993814"
           y="38.197578" /><rect
           style="opacity:1;mix-blend-mode:normal;fill:none;stroke:none;stroke-width:1.70656;stroke-linejoin:round;stroke-dasharray:none;stroke-opacity:1"
           id="rect10-6"
           width="3.166574"
           height="4"
           x="31.527073"
           y="34.197578" /></g></g><path
       id="path1"
       style="display:inline;opacity:1;fill:none;fill-opacity:1;stroke:url(#linearGradient4);stroke-width:1.5;stroke-linecap:round;stroke-linejoin:miter;stroke-dasharray:none;stroke-opacity:1"
       d="m 23.592119,11.384944 -5.454518,0.66517 -2.745448,3.4345 0.690011,4.78699 3.253859,2.71662 5.77079,-0.806266 1.862997,-3.401048 -0.240171,-0.583242 -5.514933,-0.166361 -0.165205,-0.568899 5.166084,-2.694532 0.02885,-0.705433 z" /><path
       id="path7"
       style="display:inline;opacity:1;fill:url(#linearGradient18);stroke:none;stroke-width:1.25;stroke-linecap:butt;stroke-linejoin:miter;stroke-dasharray:none;stroke-opacity:1"
       d="m 38.930722,16.408731 -1.773965,0.781324 1.08885,0.06995 -2.38884,0.801465 2.2665,0.672539 -1.509321,0.927994 1.612479,0.339119 1.817053,0.608426 2.336712,-0.238342 1.071965,-1.743781 -1.068847,-2.055773 -1.402169,-0.475693 z m 2.273903,0.535725 1.13008,0.582594 0.01141,1.556544 -1.52431,0.740466 -1.104928,-1.446925 z" /><path
       id="path3"
       style="display:inline;opacity:1;fill:url(#linearGradient22);stroke:none;stroke-width:1.25;stroke-linecap:butt;stroke-linejoin:miter;stroke-dasharray:none;stroke-opacity:1"
       d="m 37.388092,8.4354421 -0.910052,1.0676714 -1.573176,1.1779585 1.65145,0.288553 -1.757881,1.534645 2.553463,-0.274894 -1.08782,0.552246 2.533402,-0.04456 2.474863,-1.232947 0.303844,-1.397734 -1.138871,-2.0104216 z m 1.46367,0.5498807 1.790139,0.3583917 0.318955,1.3768765 -1.568089,0.81198 -1.230714,-0.731814 z" /></g><g
     id="layer5"
     transform="translate(-0.99951496,-1.0003327)"><path
       d="m 49.249896,6.6756789 q 0.778934,0.045156 1.286935,0.6321785 0.519289,0.5870228 0.519289,1.7610684 0,0.7676453 -0.327378,1.2192012 -0.327378,0.451556 -0.756356,0.632178 -0.428979,0.169334 -0.756357,0.169334 -0.3048,0 -1.02729,0.06773 -0.417689,0.04516 -0.677334,0.05645 -0.02258,1.038579 -0.02258,1.411112 0,1.467557 0.03387,1.591735 0.02258,0.112889 -0.04516,0.203201 -0.05645,0.07902 -0.158045,0.112889 -0.09031,0.02258 -0.169334,-0.01129 -0.03387,-0.01129 -0.191911,-0.01129 -0.338667,0 -0.722489,0.04516 -0.180623,0.02258 -0.237067,-0.06773 -0.05645,-0.1016 -0.05645,-0.3048 0,-0.248356 0.01129,-0.451556 l 0.01129,-0.948268 0.02258,-1.33209 q 0.06773,-2.3932471 0.06773,-3.7366262 0,-0.4064004 -0.01129,-0.4854227 -0.02258,-0.2483558 -0.02258,-0.2935114 0,-0.2935115 0.124178,-0.2935115 0.05644,0 0.225778,0.011289 0.180623,0.011289 0.496712,0.011289 0.09031,0 0.462845,-0.011289 0.372534,-0.011289 0.778934,-0.011289 0.598312,0 1.140179,0.033867 z M 48.89994,10.276838 q 0.417689,0 0.778934,-0.248356 0.361245,-0.2483554 0.361245,-0.8918228 0,-0.6886229 -0.282223,-1.0385788 Q 49.475674,7.7368356 48.933807,7.6352355 48.087139,7.465902 47.601716,7.4997687 q 0,0.3160892 -0.01129,0.4741338 -0.02258,0.6321784 -0.05645,0.903112 -0.04516,0.3951115 -0.02258,0.8918232 l 0.02258,0.4402673 0.530578,0.03387 q 0.304801,0.03387 0.835379,0.03387 z m 3.262498,-3.6463147 q 0.146755,0.011289 0.282222,0.011289 0.146756,-0.011289 0.248356,-0.011289 0.248356,0 0.361245,0.011289 0.135466,0.011289 0.191911,0.056445 0.05644,0.045156 0.05644,0.1241779 0,0.056445 -0.01129,0.1241779 -0.01129,0.067733 -0.02258,0.1241779 -0.124178,0.9595565 -0.135467,1.9755575 -0.01129,0.2935114 -0.01129,0.9031121 l 0.01129,1.3659574 q 0.01129,0.169334 0.01129,0.349956 l 0.01129,0.451556 q 0.02258,0.587023 0.02258,0.869245 0,0.214489 -0.01129,0.259645 -0.01129,0.04516 -0.01129,0.259645 l 0.01129,0.620889 q 0.01129,0.135467 0.01129,0.338667 0.01129,0.146756 -0.09031,0.180623 -0.09031,0.04515 -0.248355,0.03387 h -1.02729 q -0.169334,0.01129 -0.214489,-0.07902 -0.04516,-0.07902 -0.05645,-0.270934 -0.02258,-0.07902 0.02258,-0.417689 0.04516,-0.316089 0.04516,-0.541867 0,-0.07902 0.07902,-1.524002 0.06773,-1.061156 0.06773,-1.162756 l 0.02258,-1.1063132 0.02258,-1.0272899 0.02258,-0.6096006 0.02258,-0.4064004 V 7.0595016 q 0,-0.4402672 0.225778,-0.4402672 0.05645,0 0.09031,0.011289 z m 7.507119,7.4958297 q 0.3048,0.304801 0.3048,0.41769 0,0.02258 -0.05644,0.07902 -0.1016,0.06773 -0.508,0.06773 -0.293511,0 -0.372534,-0.04515 -0.07902,-0.03387 -0.124178,-0.124178 -0.03387,-0.09031 -0.05644,-0.135467 -0.03387,-0.06773 -0.282223,-0.383823 -0.237067,-0.327378 -0.361244,-0.496711 -0.598312,-0.767646 -1.038579,-1.388535 -0.270934,-0.383823 -1.004712,-1.320801 L 55.989375,10.57035 55.210441,9.5995041 55.165285,10.05106 q -0.04515,0.338667 -0.02258,0.812801 0.03387,0.316089 0.04516,1.636891 0.01129,1.320801 0.01129,1.930402 0,0.180622 -0.135467,0.225778 -0.135466,0.05644 -0.316089,0.05644 -0.07902,0 -0.1016,-0.06773 -0.02258,-0.06773 -0.03387,-0.146756 0,-0.07902 0,-0.1016 -0.02258,-0.180623 -0.02258,-0.530579 0,-0.225778 0.01129,-0.338667 0.01129,-0.6096 0.03387,-2.122313 0.02258,-1.5240013 0.02258,-2.7319137 0,-1.2982235 -0.03387,-1.5127126 -0.01129,-0.090311 -0.01129,-0.2370669 0,-0.1693335 0.04516,-0.2144891 0.05644,-0.045156 0.158045,-0.045156 0.225778,0 0.440267,0.011289 l 1.23049,0.022578 q 0.677334,0 1.411112,0.2370669 0.733779,0.2370669 0.733779,0.8805342 0,0.6096006 -0.451556,0.9482676 -0.451556,0.338667 -1.016001,0.4628449 -0.553156,0.1241779 -0.970846,0.1241779 -0.146755,0 -0.158044,-0.011289 0.06773,0.067733 0.891823,1.1966238 2.483558,3.330225 2.743203,3.58987 z M 55.176574,8.8883034 q 0.372534,0 0.564445,-0.011289 0.654757,-0.022578 1.016001,-0.090311 0.51929,-0.090311 0.778934,-0.2483558 0.270934,-0.1580446 0.270934,-0.4967116 0,-0.225778 -0.237067,-0.3838226 Q 57.332754,7.4884798 56.994087,7.4094575 56.666709,7.3191463 56.418353,7.3191463 56.136131,7.3078574 55.62813,7.3078574 h -0.383822 z m 10.577709,5.5428506 q 0.03387,0.07902 0.03387,0.112889 0,0.04515 -0.124178,0.04515 h -0.632179 q -0.04515,0 -0.07902,-0.01129 -0.02258,-0.02258 -0.04515,-0.09031 -0.04516,-0.124178 -0.124178,-0.4064 -0.1016,-0.282223 -0.135467,-0.508001 -0.03387,-0.169333 -0.112889,-0.4064 -0.06773,-0.237067 -0.124178,-0.361245 -0.1016,-0.214489 -0.180622,-0.485423 l -0.101601,-0.327378 q -0.05644,-0.124178 -0.09031,-0.146756 -0.02258,-0.03387 -0.09031,-0.03387 -0.237067,0 -0.349956,0.01129 l -0.485423,0.02258 q -0.09031,0.01129 -0.835378,0.01129 h -0.688623 -0.02258 q -0.06773,0 -0.1016,0.124178 l -0.02258,0.112889 -0.04516,0.214489 q -0.02258,0.05645 -0.146756,0.654756 -0.03387,0.191912 -0.112889,0.496712 -0.02258,0.225778 -0.1016,0.372534 -0.02258,0.03387 -0.05644,0.158044 -0.03387,0.124178 -0.05644,0.203201 -0.03387,0.09031 -0.07902,0.293511 -0.01129,0.01129 -0.02258,0.05645 -0.01129,0.03387 -0.03387,0.04515 -0.02258,0 -0.06773,0 h -0.225778 q -0.1016,0 -0.05644,-0.146756 0,-0.03387 0.01129,-0.05644 0,-0.02258 0.01129,-0.05645 0.01129,-0.03387 0.03387,-0.1016 l 0.101601,-0.417689 q 0.02258,-0.06773 0.07902,-0.237067 0.05644,-0.169333 0.07902,-0.316089 0.05644,-0.270934 0.214489,-0.82409 l 0.09031,-0.316089 q 0.214489,-0.699912 0.270933,-0.982134 l 0.158045,-0.598312 q 0.112889,-0.372534 0.135467,-0.474134 0.07902,-0.3386669 0.225778,-0.8466675 l 0.07902,-0.3160892 0.06773,-0.2370669 q 0.112889,-0.3838226 0.191912,-0.5531561 0.02258,-0.067733 0.158044,-0.4628449 0.146756,-0.4064004 0.191911,-0.6434673 0.07902,-0.2709336 0.158045,-0.4064005 0.09031,-0.1354668 0.237067,-0.1354668 0.05644,0 0.112889,0.1016001 0.05644,0.1016001 0.112889,0.2483559 0.05644,0.1467557 0.07902,0.2144891 0.09031,0.2144891 0.316089,1.0724455 l 0.09031,0.3160892 q 0.01129,0.090311 0.372533,1.1063122 l 0.21449,0.6208892 0.2032,0.530579 q 0.316089,0.891823 0.4064,1.083734 0.395112,1.196624 0.462845,1.444979 0.07902,0.293512 0.248356,0.733779 0.180622,0.440267 0.2032,0.496712 z M 63.643259,11.07835 q 0.146755,0 0.146755,-0.07902 0,-0.05645 -0.07902,-0.248356 -0.06773,-0.169334 -0.2032,-0.632178 -0.1016,-0.3725341 -0.2032,-0.6434678 Q 63.191703,9.1366592 63.056236,8.6738143 62.932058,8.2109694 62.90948,8.0755026 62.740147,7.4771909 62.683702,7.4771909 q -0.03387,0 -0.112889,0.3048003 L 62.50308,8.030347 q -0.07902,0.3048003 -0.2032,0.7676452 -0.124178,0.451556 -0.225778,0.7676452 -0.06773,0.2935115 -0.191912,0.7450676 -0.112889,0.440267 -0.180622,0.6096 -0.02258,0.06773 -0.02258,0.07902 0,0.07902 0.06773,0.1016 0.07902,0.02258 0.146756,0.02258 0.07902,-0.01129 0.1016,-0.01129 l 0.654756,-0.02258 q 0.135467,-0.02258 0.383823,-0.02258 z m 4.820359,-4.6623158 q 0.248356,0 0.361245,0.056444 0.124178,0.045156 0.191911,0.1693335 0.112889,0.237067 0.282223,0.6096007 l 0.417689,0.903112 0.530579,1.1627567 q 0.146755,0.3160892 0.383822,0.8353779 0.237067,0.51929 0.338667,0.72249 0.191911,0.395111 0.248356,0.485424 l 0.316089,0.620889 0.349956,0.688623 -0.02258,-0.654757 -0.04515,-1.106311 V 10.57035 q 0,-0.6208899 0.02258,-1.2530684 0,-0.4741338 -0.01129,-0.7676452 L 71.816422,7.69168 71.861577,6.6079455 q 0,-0.1693335 0.169334,-0.1693335 0.05644,0 0.225778,0.033867 0.1016,0.022578 0.214489,0.022578 0.112889,0 0.180622,0 0.09031,0 0.112889,0.022578 0.03387,0.022578 0.03387,0.079022 0,0.045156 -0.01129,0.1016002 -0.01129,0.056444 -0.01129,0.1241779 l -0.01129,0.9708454 -0.02258,2.2803575 -0.01129,0.327378 q 0,0.383823 0.01129,0.699912 0.01129,0.316089 0.02258,0.519289 0.03387,0.485423 0.03387,0.812801 0,-0.04516 0.03387,1.343379 l 0.02258,0.632179 v 0.02258 q 0,0.225778 -0.21449,0.2032 -0.03387,-0.01129 -0.135466,-0.01129 l -0.327378,0.01129 h -0.06773 q -0.07902,0 -0.124178,-0.03387 -0.03387,-0.03387 -0.124178,-0.191911 -0.03387,-0.07902 -0.09031,-0.225778 -0.05646,-0.146755 -0.13548,-0.327377 Q 71.150377,12.636218 70.935887,12.195951 70.687532,11.721817 69.68282,9.4753262 69.457042,9.0124813 69.174819,8.4931919 l -0.327378,-0.5870228 0.03387,1.0724455 0.01129,0.6660451 q 0.02258,0.7450673 0.02258,0.9821343 0,0.92569 0.03387,1.862669 l 0.01129,0.880534 q 0,0.237067 0.02258,0.688623 l 0.02258,0.395111 v 0.02258 q 0,0.112889 -0.05645,0.146756 -0.05644,0.03387 -0.158045,0.03387 l -0.248355,0.01129 q -0.237067,0.03387 -0.508001,0.03387 -0.316089,0 -0.519289,0.01129 l -0.575734,0.01129 q -0.169334,0 -0.225778,-0.06773 -0.05644,-0.05645 -0.06773,-0.135467 -0.01129,-0.07902 -0.02258,-0.112889 -0.04516,-0.203201 -0.04516,-0.496712 0,-0.270934 0.01129,-0.462845 0,-0.587023 0.02258,-1.365957 0.02258,-0.790223 0.05644,-1.12889 l 0.05644,-0.801512 q 0.135466,-1.8739572 0.135466,-2.1110241 0,-0.8918231 0.03387,-1.3320902 0.02258,-0.3048004 0.316089,-0.3048004 0.09031,0 0.169334,0.011289 0.07902,0.011289 0.124178,0.011289 z m 8.410238,3.3302257 q 0.237067,0 0.440267,-0.022578 0.06773,-0.011289 0.214489,-0.011289 0.158045,0 0.237067,0.011289 l 0.259645,0.022578 0.03387,-0.3386671 0.03387,-0.5418672 0.02258,-1.1063122 0.02258,-0.8692453 q 0.01129,-0.1693335 0.04516,-0.2257781 0.03387,-0.056445 0.158044,-0.067733 0.112889,0 0.632179,-0.067733 0.09031,-0.011289 0.327378,-0.011289 0.361245,0 0.598312,0.033867 0.124177,0.022578 0.146755,0.056444 0.03387,0.022578 0.03387,0.090311 0.01129,0.067733 0.02258,0.1241779 0,0.1806224 -0.03387,0.6096006 -0.04516,0.790223 -0.04516,1.0837344 0,0.1467557 -0.06773,0.9369787 -0.06773,0.8579564 -0.06773,1.1176014 l 0.02258,2.235202 q 0,1.264357 0.04516,1.546579 v 0.02258 q 0,0.124178 -0.04516,0.158045 -0.04516,0.02258 -0.1016,0.02258 -0.05644,-0.01129 -0.07902,-0.01129 -0.09031,-0.02258 -0.225778,-0.02258 -0.04516,0 -0.293511,0.02258 -0.31609,0.03387 -1.016001,0.03387 h -0.02258 q -0.158045,0 -0.158045,-0.1016 0,-0.214489 -0.01129,-0.846667 0,-0.632179 -0.03387,-0.92569 -0.02258,-0.428978 -0.02258,-0.835379 -0.01129,-0.169333 -0.01129,-0.519289 h -0.327378 l -0.485423,0.01129 -0.2032,0.01129 -0.225778,-0.01129 q -0.169334,0 -0.270934,-0.01129 l -0.03387,0.7112 q -0.03387,0.395112 -0.03387,1.02729 v 0.575734 q 0,0.609601 0.02258,0.733779 0.02258,0.135467 -0.04516,0.169333 -0.05644,0.02258 -0.146756,0.02258 -0.07902,0 -0.112889,0 -0.09031,-0.01129 -0.3048,-0.02258 -0.214489,-0.02258 -0.349956,-0.02258 l -0.327378,0.02258 q -0.07902,0.01129 -0.587023,0.04516 -0.259645,0.03387 -0.259645,-0.316089 l 0.01129,-0.440267 0.02258,-0.812801 q 0,-0.248356 0.01129,-0.462845 l 0.01129,-1.309513 q 0,-0.451556 -0.01129,-0.575734 -0.03387,-0.259644 -0.03387,-0.677334 l 0.01129,-0.6886223 q 0.01129,-0.1693335 0.01129,-0.4402671 0,-0.3160892 0.06773,-1.3095124 l 0.03387,-0.7789341 q 0,-0.090311 0.03387,-0.124178 0.03387,-0.033867 0.1016,-0.033867 l 0.146756,0.011289 q 0.146755,0.022578 0.383822,0.033867 0.237067,0.011289 0.462845,0.011289 l 0.51929,-0.011289 q 0.124178,-0.011289 0.282222,-0.011289 h 0.01129 q 0.09031,0 0.09031,0.124178 0.01129,0.022578 0.01129,0.451556 0.01129,0.4176893 0.01129,0.9934232 0,0.3612448 -0.02258,0.9708454 l -0.02258,0.5192895 z m 10.30677,4.6171601 q 0.05644,0.112889 0.05644,0.146756 0,0.09031 -0.2032,0.09031 h -0.812801 q -0.04515,0 -0.09031,-0.07902 -0.04516,-0.07902 -0.07902,-0.158045 -0.03387,-0.07902 -0.05645,-0.135467 -0.05644,-0.112889 -0.214489,-0.519289 -0.146756,-0.406401 -0.225778,-0.643467 -0.03387,-0.112889 -0.135467,-0.327379 -0.1016,-0.225778 -0.146755,-0.316089 -0.04516,-0.135467 -0.09031,-0.180622 -0.03387,-0.04516 -0.112889,-0.04516 -0.07902,0 -0.2032,0.01129 -0.112889,0.01129 -0.248356,0.02258 -0.09031,0.02258 -0.564445,0.02258 -0.327378,0 -0.643467,0.02258 -0.1016,0.01129 -0.361245,0.01129 l -0.598311,-0.01129 q -0.05644,0 -0.09031,0.04515 -0.02258,0.04516 -0.03387,0.112889 -0.01129,0.05645 -0.02258,0.09031 l -0.06773,0.282223 q -0.03387,0.158044 -0.09031,0.372534 -0.04515,0.2032 -0.07902,0.383822 l -0.124178,0.485423 -0.09031,0.327378 q -0.03387,0.135467 -0.06773,0.180622 -0.02258,0.03387 -0.07902,0.03387 H 81.03947 q -0.05644,0 -0.05644,-0.04515 0,-0.02258 0.04516,-0.158045 0.09031,-0.214489 0.158045,-0.428978 0.417689,-1.399824 0.496711,-1.828802 0.1016,-0.564445 0.41769,-1.456268 0.1016,-0.383823 0.191911,-0.6999121 0.03387,-0.1580446 0.1016,-0.3838227 0.214489,-0.790223 0.428978,-1.4788459 l 0.282223,-0.903112 q 0.09031,-0.3499559 0.225778,-0.7224897 0.06773,-0.1693335 0.158044,-0.079022 0.06773,0.045156 0.101601,0.1580446 0.03387,0.112889 0.04515,0.1580447 0.03387,0.1354668 0.598312,1.354668 0.225778,0.4628449 0.485423,1.2079123 0.112889,0.3273781 0.620889,1.4111118 0.259645,0.530579 0.338667,0.733779 0.180622,0.395112 0.970846,1.919113 l 0.135466,0.282223 q 0.259645,0.575733 0.395112,0.733778 z m -2.957692,-3.725337 q 0.07902,-0.01129 0.135467,-0.01129 0.05644,0 0.09031,-0.01129 0.03387,-0.01129 0.03387,-0.03387 0,-0.02258 -0.03387,-0.09031 -0.05644,-0.1016 -0.259645,-0.5644447 -0.2032,-0.4741339 -0.282222,-0.7112008 -0.112889,-0.2709336 -0.180623,-0.451556 -0.05644,-0.1806224 -0.09031,-0.2483558 -0.02258,-0.056444 -0.05644,-0.112889 -0.02258,-0.056445 -0.04516,-0.090311 -0.02258,-0.033867 -0.04516,-0.033867 -0.03387,0 -0.07902,0.1693335 -0.03387,0.1693335 -0.05644,0.2596447 -0.203201,0.6547562 -0.293512,0.9934232 -0.04515,0.1693336 -0.135467,0.4176899 -0.07902,0.237066 -0.112889,0.327378 -0.03387,0.112889 -0.03387,0.180622 0,0.06773 0.1016,0.06773 0.237067,0 0.722489,-0.01129 0.496712,-0.02258 0.62089,-0.04516 z"
       id="text34"
       style="font-size:11.2889px;line-height:0.9;font-family:Barrio;-inkscape-font-specification:Barrio;fill:url(#linearGradient29);stroke-miterlimit:2"
       aria-label="Piranha" /><path
       d="m 52.460186,19.160695 q 0.03387,0.04233 0.186267,0.2286 0.160867,0.186266 0.245533,0.414867 0.08467,0.2286 0.08467,0.491066 0,0.702734 -0.414867,1.126068 -0.4064,0.423333 -1.032934,0.643466 -0.677333,0.228601 -1.4478,0.237067 l -0.01693,0.922867 -0.01693,1.193801 q 0,0.254 -0.2032,0.254 -0.0508,0 -0.1016,-0.0085 -0.0508,-0.0085 -0.08467,-0.0085 l -0.321733,0.01693 -0.3302,0.01693 q -0.09313,0 -0.127,-0.06773 -0.03387,-0.06773 -0.03387,-0.2032 0,-0.04233 0,-0.160867 0.0085,-0.118533 0.0085,-0.3556 0.0254,-1.295401 0.0254,-1.312334 v -2.319868 q 0,-0.338666 0.03387,-0.7366 l 0.03387,-0.5588 q 0,-0.135467 0.0254,-0.1524 0.03387,-0.0254 0.135467,-0.0254 0.06773,0 0.4064,-0.03387 0.440267,-0.0508 0.702734,-0.0508 0.7112,0 1.083733,0.0254 0.381,0.01693 0.677334,0.118533 0.3048,0.09313 0.4826,0.304801 z m -0.7112,2.463801 q 0.3048,-0.143934 0.448733,-0.381001 0.143934,-0.245533 0.143934,-0.651933 0,-0.321734 -0.06773,-0.668867 -0.06773,-0.347134 -0.381,-0.5334 -0.313267,-0.186267 -0.753533,-0.245534 -0.228601,-0.03387 -0.541867,-0.03387 -0.135467,0 -0.457201,0.01693 l -0.0508,2.734734 q 0.330201,0.0085 0.635001,-0.0254 0.694267,-0.0508 1.024467,-0.211666 z m 3.403604,-1.998135 q -0.03387,0.694267 -0.03387,1.041401 l 0.01693,1.278467 q 0.0085,0.3048 0.0085,0.626534 l -0.01693,0.922867 -0.0085,0.169333 0.0085,0.237067 0.01693,0.296333 1.210734,0.04233 1.007534,0.0085 h 0.01693 q 0.0508,0 0.05927,0.01693 0.0085,0.01693 0,0.0508 0,0.0254 0,0.04233 -0.0085,0.03387 0,0.127 0.01693,0.09313 0.01693,0.169333 0,0.05927 -0.04233,0.0762 -0.04233,0.01693 -0.110067,0.0085 -0.05927,0 -0.09313,0 l -0.448734,-0.0254 q -0.592667,-0.0508 -0.8382,-0.0508 -0.270934,0 -1.371601,0.0508 l -0.770467,0.0254 q -0.186266,0 -0.186266,-0.169333 v -0.660401 l 0.03387,-2.836334 q 0,-0.321733 -0.04233,-1.1684 l -0.03387,-1.041401 q 0,-0.143933 0.110067,-0.143933 0.04233,0 0.143933,0.0254 0.1016,0.0254 0.160867,0.0254 0.237067,0.03387 0.567267,0.03387 0.2286,0 0.4318,-0.0254 0.127,-0.01693 0.1778,0.01693 0.0508,0.03387 0.0508,0.110067 0,0.05927 -0.01693,0.127 -0.0085,0.05927 -0.0085,0.135466 z m 7.128937,4.876802 q 0.04233,0.08467 0.04233,0.110067 0,0.06773 -0.1524,0.06773 H 61.56186 q -0.03387,0 -0.06773,-0.05927 -0.03387,-0.05927 -0.05927,-0.118534 -0.0254,-0.05927 -0.04233,-0.1016 -0.04233,-0.08467 -0.160867,-0.389466 -0.110066,-0.304801 -0.169333,-0.482601 -0.0254,-0.08467 -0.1016,-0.245533 -0.0762,-0.169333 -0.110067,-0.237067 -0.03387,-0.1016 -0.06773,-0.135467 -0.0254,-0.03387 -0.08467,-0.03387 -0.05927,0 -0.1524,0.0085 -0.08467,0.0085 -0.186267,0.01693 -0.06773,0.01693 -0.423333,0.01693 -0.245534,0 -0.4826,0.01693 -0.0762,0.0085 -0.270934,0.0085 l -0.448733,-0.0085 q -0.04233,0 -0.06773,0.03387 -0.01693,0.03387 -0.0254,0.08467 -0.0085,0.04233 -0.01693,0.06773 l -0.0508,0.211667 q -0.0254,0.118533 -0.06773,0.2794 -0.03387,0.1524 -0.05927,0.287867 l -0.09313,0.364067 -0.06773,0.245533 q -0.0254,0.1016 -0.0508,0.135467 -0.01693,0.0254 -0.05927,0.0254 h -0.499533 q -0.04233,0 -0.04233,-0.03387 0,-0.01693 0.03387,-0.118533 0.06773,-0.160867 0.118534,-0.321734 0.313266,-1.049867 0.372533,-1.3716 0.0762,-0.423334 0.313267,-1.092201 0.0762,-0.287866 0.143933,-0.524933 0.0254,-0.118534 0.0762,-0.287867 0.160867,-0.592667 0.321734,-1.109134 l 0.211666,-0.677333 q 0.06773,-0.262467 0.169334,-0.541867 0.0508,-0.127 0.118533,-0.05927 0.0508,0.03387 0.0762,0.118533 0.0254,0.08467 0.03387,0.118534 0.0254,0.1016 0.448733,1.016 0.169334,0.347134 0.364067,0.905934 0.08467,0.245533 0.465667,1.058334 0.194734,0.397933 0.254,0.550333 0.135467,0.296334 0.728134,1.439334 l 0.1016,0.211667 q 0.194733,0.4318 0.296333,0.550333 z M 60.06326,21.709162 q 0.05927,-0.0085 0.1016,-0.0085 0.04233,0 0.06773,-0.0085 0.0254,-0.0085 0.0254,-0.0254 0,-0.01693 -0.0254,-0.06773 -0.04233,-0.0762 -0.194733,-0.423334 -0.1524,-0.3556 -0.211667,-0.5334 -0.08467,-0.2032 -0.135467,-0.338667 -0.04233,-0.135467 -0.06773,-0.186267 -0.01693,-0.04233 -0.04233,-0.08467 -0.01693,-0.04233 -0.03387,-0.06773 -0.01693,-0.0254 -0.03387,-0.0254 -0.0254,0 -0.05927,0.127 -0.0254,0.127 -0.04233,0.194734 -0.1524,0.491067 -0.220133,0.745067 -0.03387,0.127 -0.1016,0.313266 -0.05927,0.177801 -0.08467,0.245534 -0.0254,0.08467 -0.0254,0.135467 0,0.0508 0.0762,0.0508 0.1778,0 0.541867,-0.0085 0.372533,-0.01693 0.465667,-0.03387 z m 5.240866,-2.311401 q 0,-0.524933 0.0085,-0.651933 0,-0.160867 0.110067,-0.194734 0.110067,-0.03387 0.321733,-0.03387 0.186267,0 0.474134,-0.01693 0.296333,-0.0254 0.4572,-0.0508 0.118534,-0.0085 0.169334,0.04233 0.0508,0.04233 0.0508,0.1524 0,0.03387 -0.01693,0.186266 -0.01693,0.127001 -0.01693,1.684868 v 1.913467 q 0,0.4318 0.0085,0.956734 0.01693,0.516467 0.03387,0.931334 0.01693,0.414866 0.01693,0.2286 0,0.135466 -0.135467,0.135466 -0.05927,0 -0.1016,-0.0085 -0.03387,-0.0085 -0.135467,-0.0085 -0.1016,0 -0.321733,0.01693 -0.237067,0.01693 -0.3302,0.01693 -0.160867,0 -0.245534,-0.06773 -0.0762,-0.06773 -0.160867,-0.245533 l -0.143933,-0.287867 q -0.254,-0.567267 -0.448734,-0.889 -0.110066,-0.186267 -0.5588,-1.024467 l -0.372533,-0.702734 v 0.321734 0.194733 q 0,0.06773 -0.0085,0.169333 0,0.101601 0.0085,0.228601 0,0.440266 0.0085,1.151467 0.01693,0.7112 0.04233,0.855133 0.0085,0.04233 0.0085,0.1016 0,0.08467 -0.03387,0.110067 -0.03387,0.01693 -0.127,0.0085 -0.135467,0 -0.321734,0.01693 -0.1778,0.01693 -0.338667,0.03387 -0.127,0.01693 -0.169333,-0.04233 -0.03387,-0.05927 -0.0254,-0.262466 0,-0.3048 -0.0254,-1.075267 -0.03387,-0.804334 -0.04233,-1.397001 0,-0.601134 0.0254,-1.2192 0.01693,-0.778934 0.01693,-1.066801 0,-0.389467 -0.0254,-0.567267 -0.01693,-0.1524 -0.01693,-0.194733 0,-0.1524 0.0508,-0.2032 0.0508,-0.05927 0.135466,-0.05927 0.04233,0 0.169334,0.0085 0.127,0 0.364067,-0.05927 0.09313,-0.01693 0.186266,-0.01693 0.0508,0 0.143934,0.0085 0.09313,0.0085 0.245533,0.0085 0.194734,0 0.321734,0.1524 0.135466,0.1524 0.287866,0.4318 l 0.08467,0.1524 q 0.1016,0.186267 0.245534,0.397934 l 0.127,0.194733 z m 6.578603,-0.465666 q 0,0.04233 -0.01693,0.220133 -0.0085,0.1778 -0.0085,0.440267 0,0.237067 0.0254,0.643467 0,0.2286 -0.296334,0.2286 h -1.490134 l -0.01693,0.872067 q -0.0085,0.143933 -0.0085,0.719667 0,0.592667 0.0085,1.151467 0.0085,0.5588 0.0085,0.9652 l 0.0085,0.347134 v 0.04233 q 0,0.0762 -0.0254,0.09313 -0.01693,0.01693 -0.0508,0.01693 -0.03387,0 -0.0508,0 h -0.575733 q -0.1016,0 -0.118534,-0.03387 -0.01693,-0.03387 -0.01693,-0.118533 0,-0.09313 0,-0.135467 l 0.03387,-1.049867 q 0.0508,-1.371601 0.0508,-1.761067 0,-0.220134 -0.01693,-0.660401 l -0.0085,-0.448733 q -0.6096,0 -1.236134,0.01693 l -0.262467,0.0085 q -0.110066,0 -0.1524,-0.05927 -0.04233,-0.05927 -0.01693,-0.135467 l 0.0085,-0.211666 q 0.01693,-0.491067 0.01693,-0.905934 0,-0.2032 -0.0085,-0.245533 v -0.05927 q 0,-0.09313 0.03387,-0.110067 0.04233,-0.01693 0.118533,-0.01693 h 0.838201 l 0.474133,-0.0085 q 0.440267,-0.01693 0.618067,-0.01693 l 0.508,0.0085 q 0.6096,0.01693 0.956734,0.01693 0.254,0 0.3302,-0.0085 0.186267,-0.0085 0.262467,0.05927 0.0762,0.05927 0.0762,0.135467 z m 2.4892,-0.228601 q 0.7366,0 1.0922,0.287867 0.3556,0.287867 0.372534,0.3048 0.08467,0.05927 0.08467,0.118534 0,0.03387 -0.03387,0.06773 -0.0254,0.03387 -0.1016,0.143933 -0.0762,0.110067 -0.118534,0.110067 -0.04233,0 -0.110067,-0.04233 l -0.05927,-0.0508 q -0.643467,-0.465667 -1.100667,-0.465667 -0.584201,0 -0.889001,0.270933 -0.296333,0.262467 -0.296333,0.668867 0,0.347134 0.245533,0.592667 0.254,0.245534 0.660401,0.465667 0.118533,0.0508 0.245533,0.09313 0.423333,0.160867 0.7366,0.347134 0.321734,0.1778 0.575734,0.550333 0.254,0.364067 0.254,0.922867 0,0.956734 -0.651934,1.312334 -0.651933,0.347134 -1.456267,0.347134 -0.465667,0 -0.846667,-0.211667 -0.372533,-0.211667 -0.5334,-0.372533 -0.08467,-0.0762 -0.04233,-0.1524 0.0085,-0.01693 0.06773,-0.135467 0.06773,-0.118534 0.118533,-0.118534 h 0.01693 q 0.0254,0 0.04233,0.01693 0.0254,0.0085 0.0508,0.04233 0.03387,0.03387 0.0762,0.0762 0.110067,0.110067 0.4318,0.254 0.321734,0.135467 0.5334,0.135467 0.448734,0 0.855134,-0.186267 0.4064,-0.194733 0.4064,-0.8128 0,-0.262467 -0.237067,-0.4572 -0.2286,-0.194734 -0.719667,-0.4572 l -0.364066,-0.203201 q -0.592667,-0.338666 -0.931334,-0.728133 -0.3302,-0.389467 -0.3302,-1.024467 0,-0.524934 0.296333,-0.914401 0.3048,-0.389466 0.753534,-0.592666 0.4572,-0.203201 0.905934,-0.203201 z"
       id="text37"
       style="font-size:8.46667px;line-height:0.9;font-family:Barrio;-inkscape-font-specification:Barrio;fill:url(#linearGradient30);stroke-miterlimit:2"
       aria-label="plants" /><path
       d="m 55.726906,30.520694 q 0.02822,0.05645 0.02822,0.07338 0,0.04516 -0.1016,0.04516 h -0.4064 q -0.02258,0 -0.04515,-0.03951 -0.02258,-0.03951 -0.03951,-0.07902 -0.01693,-0.03951 -0.02822,-0.06773 -0.02822,-0.05644 -0.107245,-0.259644 -0.07338,-0.2032 -0.112889,-0.321733 -0.01693,-0.05645 -0.06773,-0.163689 -0.0508,-0.112889 -0.07338,-0.158044 -0.02258,-0.06773 -0.04516,-0.09031 -0.01693,-0.02258 -0.05645,-0.02258 -0.03951,0 -0.101599,0.0056 -0.05644,0.0056 -0.124178,0.01129 -0.04516,0.01129 -0.282222,0.01129 -0.163689,0 -0.321733,0.01129 -0.0508,0.0056 -0.180622,0.0056 l -0.299156,-0.0056 q -0.02822,0 -0.04516,0.02258 -0.01129,0.02258 -0.01693,0.05644 -0.0056,0.02822 -0.01129,0.04516 l -0.03387,0.141111 q -0.01693,0.07902 -0.04516,0.186266 -0.02258,0.1016 -0.03951,0.191911 l -0.06209,0.242711 -0.04516,0.163689 q -0.01693,0.06773 -0.03387,0.09031 -0.01129,0.01693 -0.03951,0.01693 H 52.65633 q -0.02822,0 -0.02822,-0.02258 0,-0.01129 0.02258,-0.07902 0.04516,-0.107244 0.07902,-0.214489 0.208844,-0.69991 0.248355,-0.914399 0.0508,-0.282222 0.208845,-0.728133 0.0508,-0.191911 0.09595,-0.349955 0.01693,-0.07902 0.0508,-0.191911 0.107245,-0.395111 0.214489,-0.739422 l 0.141111,-0.451555 q 0.04516,-0.174977 0.112889,-0.361244 0.03387,-0.08467 0.07902,-0.03951 0.03387,0.02258 0.0508,0.07902 0.01693,0.05645 0.02258,0.07902 0.01693,0.06773 0.299155,0.677333 0.112889,0.231422 0.242711,0.603955 0.05644,0.163689 0.310444,0.705555 0.129822,0.265289 0.169333,0.366889 0.09031,0.197555 0.485422,0.959555 l 0.06773,0.141111 q 0.129823,0.287866 0.197556,0.366888 z m -1.478844,-1.862665 q 0.03951,-0.0056 0.06773,-0.0056 0.02822,0 0.04516,-0.0056 0.01693,-0.0056 0.01693,-0.01693 0,-0.01129 -0.01693,-0.04516 -0.02822,-0.0508 -0.129822,-0.282222 -0.1016,-0.237066 -0.141111,-0.355599 -0.05644,-0.135467 -0.09031,-0.225778 -0.02822,-0.09031 -0.04516,-0.124178 -0.01129,-0.02822 -0.02822,-0.05644 -0.01129,-0.02822 -0.02258,-0.04516 -0.01129,-0.01693 -0.02258,-0.01693 -0.01693,0 -0.03951,0.08467 -0.01693,0.08467 -0.02822,0.129822 -0.1016,0.327377 -0.146756,0.49671 -0.02258,0.08467 -0.06773,0.208845 -0.03951,0.118533 -0.05644,0.163689 -0.01693,0.05644 -0.01693,0.09031 0,0.03387 0.0508,0.03387 0.118533,0 0.361244,-0.0056 0.248356,-0.01129 0.310444,-0.02258 z m 3.110085,-2.003776 q 0.491066,0 0.728133,0.191911 0.237066,0.191911 0.248355,0.2032 0.05644,0.03951 0.05644,0.07902 0,0.02258 -0.02258,0.04516 -0.01693,0.02258 -0.06773,0.09596 -0.0508,0.07338 -0.07902,0.07338 -0.02822,0 -0.07338,-0.02822 l -0.03951,-0.03387 q -0.428977,-0.310445 -0.733777,-0.310445 -0.389466,0 -0.592666,0.180622 -0.197555,0.174978 -0.197555,0.445911 0,0.231422 0.163688,0.395111 0.169334,0.163689 0.440267,0.310444 0.07902,0.03387 0.163688,0.06209 0.282222,0.107244 0.491067,0.231422 0.214488,0.118533 0.383822,0.366889 0.169333,0.242711 0.169333,0.615244 0,0.637821 -0.434622,0.874888 -0.434622,0.231422 -0.970844,0.231422 -0.310444,0 -0.564444,-0.141111 -0.248355,-0.141111 -0.355599,-0.248355 -0.05645,-0.0508 -0.02822,-0.1016 0.0056,-0.01129 0.04516,-0.09031 0.04516,-0.07902 0.07902,-0.07902 h 0.01129 q 0.01693,0 0.02822,0.01129 0.01693,0.0056 0.03387,0.02822 0.02258,0.02258 0.0508,0.0508 0.07338,0.07338 0.287866,0.169333 0.214489,0.09031 0.3556,0.09031 0.299155,0 0.570088,-0.124178 0.270933,-0.129822 0.270933,-0.541866 0,-0.174978 -0.158044,-0.3048 -0.1524,-0.129822 -0.479777,-0.3048 l -0.242711,-0.135466 q -0.395111,-0.225778 -0.620889,-0.485422 -0.220133,-0.259644 -0.220133,-0.682977 0,-0.349956 0.197556,-0.6096 0.203199,-0.259644 0.502355,-0.395111 0.3048,-0.135466 0.603955,-0.135466 z"
       id="text36"
       style="font-size:5.64444px;line-height:0.9;font-family:Barrio;-inkscape-font-specification:Barrio;fill:url(#linearGradient31);stroke-miterlimit:2"
       aria-label="as" /><path
       d="m 41.692562,37.322971 q 1.15711,0 1.749776,0.423333 0.592667,0.409222 0.818444,0.762 0.239889,0.338666 0.296333,0.423333 0.141111,0.183444 0.141111,0.282222 0,0.08467 -0.05644,0.141111 -0.05644,0.05644 -0.141111,0.09878 -0.08467,0.04233 -0.112889,0.07056 -0.169333,0.112889 -0.451555,0.352778 -0.127,0.09878 -0.381,0.296333 -0.239889,0.183444 -0.324555,0.225777 -0.05644,0.04233 -0.112889,0.04233 -0.09878,0 -0.183444,-0.112889 -0.08467,-0.112889 -0.112889,-0.155222 -0.02822,-0.04233 -0.155222,-0.183445 -0.112889,-0.141111 -0.296333,-0.239888 -0.183445,-0.09878 -0.409222,-0.09878 -0.423333,0 -0.663222,0.550333 -0.239889,0.550333 -0.239889,1.961443 0,0.931332 0.155223,1.523999 0.155222,0.592666 0.366888,0.860777 0.225778,0.254 0.423333,0.254 0.282222,0 0.423333,-0.127 0.155222,-0.127 0.268111,-0.479778 0.112889,-0.338666 0.366889,-0.338666 0.08467,0 0.183444,0.02822 0.112889,0.02822 0.169333,0.04233 0.141111,0.05644 0.691444,0.183445 0.550333,0.112888 0.945444,0.183444 0.197555,0.04233 0.197555,0.338666 0,0.141111 -0.01411,0.211667 -0.01411,0.183444 -0.112889,0.493888 -0.296333,0.903111 -1.015999,1.636888 -0.705555,0.719666 -2.116665,0.719666 -0.860777,0 -1.735665,-0.522111 -0.874889,-0.52211 -1.481666,-1.735665 -0.606777,-1.227666 -0.606777,-3.217331 0,-2.82222 1.086555,-3.85233 1.086554,-1.044222 2.44122,-1.044222 z m 7.634097,4.628441 0.52211,0.01411 q 0.677333,0.02822 0.945444,0.02822 1.100666,0 1.679221,-0.01411 0.691444,0 1.058332,-0.01411 V 41.54219 l -0.01411,-0.77611 q 0,-0.536222 0.05645,-2.201332 l 0.02822,-0.987777 q 0.01411,-0.127 0.155222,-0.127 l 0.155222,0.01411 q 0.05644,0.01411 0.211667,0.01411 0.169333,0 0.239888,0.02822 0.141111,0.04233 0.141111,0.141111 l -0.02822,0.112889 q -0.01411,0.09878 -0.04233,0.380999 -0.02822,0.268111 -0.08467,0.832555 -0.04233,0.423333 -0.07055,1.933221 -0.02822,1.495776 -0.02822,2.342443 0,0.592666 -0.05644,2.06022 l -0.02822,0.931333 -0.01411,0.564444 q 0,0.211666 0.02822,0.409222 l 0.01411,0.08467 q 0,0.08467 -0.07055,0.09878 -0.05645,0 -0.07056,0 -0.141111,0.02822 -0.508,0.02822 -0.112888,0 -0.112888,-0.141111 l 0.01411,-2.06022 q -0.01411,-0.225778 -0.01411,-0.465667 0.01411,-0.254 0.01411,-0.451555 V 43.7153 42.671078 l -1.142999,0.02822 q -0.606778,0.01411 -1.636888,0.01411 H 49.34077 q -0.536222,0 -0.832555,-0.01411 0,0.239888 -0.01411,0.366888 -0.02822,0.451555 -0.02822,0.860777 l -0.01411,1.523999 q 0,1.114777 0.07056,1.467555 0.02822,0.169333 0.02822,0.211666 0,0.197555 -0.112889,0.254 -0.09878,0.04233 -0.225777,0.04233 -0.112889,-0.01411 -0.155222,-0.01411 -0.493889,-0.02822 -1.128888,0.04233 -0.239889,0.02822 -0.296334,-0.112888 -0.04233,-0.141111 -0.04233,-0.395111 0.01411,-0.254 0.01411,-0.381 l -0.02822,-4.882441 0.02822,-3.654775 q 0,-0.282222 0.05644,-0.352777 0.07055,-0.08467 0.211666,-0.08467 l 0.310444,0.01411 q 0.07056,0 0.324556,-0.02822 0.07055,-0.01411 0.239888,-0.01411 l 0.366889,0.01411 q 0.112889,0.01411 0.310444,0.01411 0.155222,0 0.183444,0.09878 0.04233,0.08467 0.02822,0.183444 0,0.09878 0,0.141111 0,0.649111 -0.05645,1.679221 l -0.05644,1.396999 -0.04233,0.832555 z m 14.012311,5.24933 q 0.07055,0.141111 0.07055,0.183444 0,0.112889 -0.253999,0.112889 h -1.016 q -0.05644,0 -0.112888,-0.09878 -0.05644,-0.09878 -0.09878,-0.197555 -0.04233,-0.09878 -0.07056,-0.169334 -0.07055,-0.141111 -0.26811,-0.64911 -0.183445,-0.508 -0.282222,-0.804333 -0.04233,-0.141111 -0.169334,-0.409222 -0.127,-0.282222 -0.183444,-0.395111 -0.05644,-0.169333 -0.112889,-0.225777 -0.04233,-0.05644 -0.141111,-0.05644 -0.09878,0 -0.254,0.01411 -0.141111,0.01411 -0.310444,0.02822 -0.112889,0.02822 -0.705555,0.02822 -0.409222,0 -0.804333,0.02822 -0.126999,0.01411 -0.451555,0.01411 l -0.747888,-0.01411 q -0.07056,0 -0.112889,0.05644 -0.02822,0.05645 -0.04233,0.141111 -0.01411,0.07056 -0.02822,0.112889 l -0.08467,0.352778 q -0.04233,0.197555 -0.112889,0.465666 -0.05644,0.254 -0.09878,0.479777 l -0.155223,0.606778 -0.112888,0.409222 q -0.04233,0.169333 -0.08467,0.225777 -0.02822,0.04233 -0.09878,0.04233 h -0.832555 q -0.07055,0 -0.07055,-0.05645 0,-0.02822 0.05644,-0.197555 0.112889,-0.268111 0.197556,-0.536222 0.52211,-1.749776 0.620888,-2.285998 0.127,-0.705555 0.522111,-1.820332 0.127,-0.479778 0.239889,-0.874888 0.04233,-0.197556 0.126999,-0.479778 0.268111,-0.987777 0.536222,-1.848554 l 0.352778,-1.128888 q 0.112889,-0.437444 0.282222,-0.90311 0.08467,-0.211667 0.197555,-0.09878 0.08467,0.05644 0.127,0.197555 0.04233,0.141111 0.05644,0.197556 0.04233,0.169333 0.747888,1.693332 0.282222,0.578555 0.606777,1.509887 0.141111,0.409222 0.776111,1.763888 0.324555,0.663222 0.423333,0.917222 0.225777,0.493888 1.213554,2.398887 L 62.84506,46.2835 q 0.324556,0.719666 0.493889,0.917222 z m -3.697108,-4.656664 q 0.09878,-0.01411 0.169333,-0.01411 0.07055,0 0.112889,-0.01411 0.04233,-0.01411 0.04233,-0.04233 0,-0.02822 -0.04233,-0.112889 -0.07056,-0.127 -0.324556,-0.705555 -0.253999,-0.592666 -0.352777,-0.888999 -0.141111,-0.338667 -0.225778,-0.564444 -0.07055,-0.225778 -0.112888,-0.310444 -0.02822,-0.07056 -0.07056,-0.141111 -0.02822,-0.07056 -0.05644,-0.112889 -0.02822,-0.04233 -0.05644,-0.04233 -0.04233,0 -0.09878,0.211666 -0.04233,0.211667 -0.07055,0.324555 -0.254,0.818444 -0.366889,1.241777 -0.05644,0.211667 -0.169333,0.522111 -0.09878,0.296333 -0.141111,0.409222 -0.04233,0.141111 -0.04233,0.225777 0,0.08467 0.127,0.08467 0.296333,0 0.90311,-0.01411 0.620889,-0.02822 0.776111,-0.05645 z m 11.161875,4.36033 q 0.380999,0.381 0.380999,0.522111 0,0.02822 -0.07055,0.09878 -0.127,0.08467 -0.635,0.08467 -0.366888,0 -0.465666,-0.05644 -0.09878,-0.04233 -0.155222,-0.155222 -0.04233,-0.112889 -0.07056,-0.169333 -0.04233,-0.08467 -0.352777,-0.479778 -0.296333,-0.409222 -0.451555,-0.620888 -0.747889,-0.959555 -1.298222,-1.735665 -0.338666,-0.479778 -1.255887,-1.650999 l -0.225778,-0.282222 -0.973666,-1.213555 -0.05644,0.564444 q -0.05644,0.423333 -0.02822,1.015999 0.04233,0.395111 0.05644,2.04611 0.01411,1.650999 0.01411,2.412998 0,0.225778 -0.169333,0.282222 -0.169333,0.07056 -0.395111,0.07056 -0.09878,0 -0.127,-0.08467 -0.02822,-0.08467 -0.04233,-0.183444 0,-0.09878 0,-0.127 -0.02822,-0.225778 -0.02822,-0.663222 0,-0.282222 0.01411,-0.423333 0.01411,-0.761999 0.04233,-2.652887 0.02822,-1.904998 0.02822,-3.414886 0,-1.622776 -0.04233,-1.890887 -0.01411,-0.112889 -0.01411,-0.296333 0,-0.211667 0.05644,-0.268111 0.07056,-0.05644 0.197556,-0.05644 0.282222,0 0.550332,0.01411 l 1.53811,0.02822 q 0.846666,0 1.763888,0.296333 0.917221,0.296333 0.917221,1.100665 0,0.762 -0.564444,1.185333 -0.564444,0.423333 -1.269999,0.578555 -0.691444,0.155222 -1.213554,0.155222 -0.183445,0 -0.197556,-0.01411 0.08467,0.08467 1.114777,1.495777 3.104442,4.162774 3.428998,4.487329 z m -5.616218,-6.54755 q 0.465666,0 0.705555,-0.01411 0.818444,-0.02822 1.269999,-0.112889 0.64911,-0.112889 0.973666,-0.310444 0.338666,-0.197556 0.338666,-0.620889 0,-0.282222 -0.296333,-0.479777 -0.296333,-0.211666 -0.719666,-0.310444 -0.409222,-0.112889 -0.719666,-0.112889 -0.352778,-0.01411 -0.987777,-0.01411 h -0.479778 z m 13.222111,6.92855 q 0.04233,0.09878 0.04233,0.141111 0,0.05645 -0.155222,0.05645 H 77.50652 q -0.05644,0 -0.09878,-0.01411 -0.02822,-0.02822 -0.05644,-0.112888 -0.05644,-0.155222 -0.155222,-0.508 -0.127,-0.352777 -0.169333,-0.634999 -0.04233,-0.211667 -0.141111,-0.508 -0.08467,-0.296333 -0.155223,-0.451555 -0.126999,-0.268111 -0.225777,-0.606778 l -0.127,-0.409221 q -0.07056,-0.155223 -0.112889,-0.183445 -0.02822,-0.04233 -0.112889,-0.04233 -0.296333,0 -0.437444,0.01411 l -0.606777,0.02822 q -0.112889,0.01411 -1.044221,0.01411 h -0.860778 -0.02822 q -0.08467,0 -0.127,0.155222 l -0.02822,0.141111 -0.05644,0.268111 q -0.02822,0.07056 -0.183445,0.818444 -0.04233,0.239889 -0.141111,0.620889 -0.02822,0.282222 -0.127,0.465666 -0.02822,0.04233 -0.07055,0.197555 -0.04233,0.155222 -0.07056,0.254 -0.04233,0.112889 -0.09878,0.366889 -0.01411,0.01411 -0.02822,0.07055 -0.01411,0.04233 -0.04233,0.05645 -0.02822,0 -0.08467,0 h -0.282222 q -0.127,0 -0.07056,-0.183445 0,-0.04233 0.01411,-0.07055 0,-0.02822 0.01411,-0.07056 0.01411,-0.04233 0.04233,-0.127 l 0.127,-0.52211 q 0.02822,-0.08467 0.09878,-0.296333 0.07056,-0.211667 0.09878,-0.395111 0.07055,-0.338667 0.268111,-1.030111 l 0.112889,-0.39511 q 0.268111,-0.874889 0.338666,-1.227666 l 0.197555,-0.747888 q 0.141111,-0.465667 0.169334,-0.592667 0.09878,-0.423333 0.282222,-1.058332 l 0.09878,-0.395111 0.08467,-0.296333 q 0.141111,-0.479777 0.239889,-0.691444 0.02822,-0.08467 0.197555,-0.578555 0.183444,-0.508 0.239889,-0.804333 0.09878,-0.338666 0.197555,-0.507999 0.112889,-0.169334 0.296333,-0.169334 0.07056,0 0.141111,0.127 0.07056,0.127 0.141111,0.310445 0.07056,0.183444 0.09878,0.26811 0.112889,0.268111 0.395111,1.340555 l 0.112889,0.395111 q 0.01411,0.112889 0.465666,1.382888 l 0.268111,0.77611 0.254,0.663222 q 0.39511,1.114777 0.507999,1.354665 0.493889,1.495777 0.578555,1.806221 0.09878,0.366889 0.310445,0.917222 0.225777,0.550333 0.253999,0.620888 z m -2.638775,-4.190997 q 0.183444,0 0.183444,-0.09878 0,-0.07056 -0.09878,-0.310445 -0.08467,-0.211666 -0.254,-0.790221 -0.126999,-0.465666 -0.253999,-0.804333 -0.141111,-0.423333 -0.310445,-1.001888 -0.155222,-0.578555 -0.183444,-0.747888 -0.211666,-0.747889 -0.282222,-0.747889 -0.04233,0 -0.141111,0.381 l -0.08467,0.310444 q -0.09878,0.381 -0.254,0.959555 -0.155222,0.564444 -0.282222,0.959555 -0.08467,0.366889 -0.239889,0.931333 -0.141111,0.550332 -0.225778,0.761999 -0.02822,0.08467 -0.02822,0.09878 0,0.09878 0.08467,0.127 0.09878,0.02822 0.183444,0.02822 0.09878,-0.01411 0.127,-0.01411 l 0.818444,-0.02822 q 0.169333,-0.02822 0.479777,-0.02822 z m 6.208883,-5.489218 q 0.860777,0 1.834443,0.465667 0.973666,0.451555 1.707443,1.66511 0.733778,1.213554 0.733778,3.301997 0,1.904999 -0.917222,2.892776 -0.90311,0.973665 -1.904998,1.255887 -1.001888,0.268111 -1.66511,0.268111 l -1.15711,0.01411 q -0.310445,0.01411 -0.762,0.01411 -0.268111,0 -0.268111,-0.479778 l 0.01411,-0.366888 -0.02822,-0.705555 -0.01411,-0.635 -0.01411,-0.423333 q -0.05644,-0.733777 -0.05644,-1.66511 0,-0.550333 0.05644,-1.453443 0.05644,-0.903111 0.05644,-1.481666 l -0.01411,-1.890887 q -0.01411,-0.225778 -0.01411,-0.508 0,-0.155222 0.197556,-0.183444 0.211666,-0.04233 0.437444,-0.02822 0.225777,0 0.310444,0 l 0.507999,-0.02822 q 0.592667,-0.02822 0.959555,-0.02822 z m 0.02822,6.857995 q 0.380999,-0.183444 0.705555,-0.507999 0.705555,-0.677333 0.705555,-1.608666 0,-0.888999 -0.677333,-1.425221 -0.296333,-0.225778 -0.663222,-0.338666 0.02822,0.310444 0.02822,0.479777 0,0.268111 -0.02822,0.77611 -0.02822,0.479778 -0.02822,0.705555 0,0.366889 -0.02822,1.185333 -0.01411,0.239889 -0.01411,0.733777 z m 11.542876,-6.208884 q 0,0.324555 -0.05644,0.324555 -0.08467,0 -0.197556,-0.01411 -0.09878,-0.02822 -0.254,-0.02822 h -2.257776 l -1.749776,-0.01411 q -0.08467,0 -0.635,0.04233 l -0.324555,0.02822 -0.02822,0.381 q -0.01411,0.211667 -0.01411,0.663222 0,0.225777 0.02822,0.592666 0.02822,0.338666 0.02822,0.493889 v 0.564444 q 0,0.225777 0.01411,0.352777 0.127,0.01411 0.381,0.01411 h 0.564444 q 0.08467,0 0.338666,-0.02822 0.366889,-0.02822 0.635,-0.02822 0.112889,0 0.790222,0.04233 l 0.310444,0.01411 q 0.112889,0 0.324555,-0.01411 0.211667,-0.02822 0.409222,-0.02822 l 0.465666,0.01411 q 0.366889,0.02822 0.508,0.02822 0.155222,0 0.211666,-0.01411 l 0.08467,-0.01411 q 0.09878,0 0.141111,0.07055 0.04233,0.05645 0.02822,0.112889 -0.01411,0.09878 -0.01411,0.254 0,0.141111 -0.01411,0.254 -0.01411,0.112889 -0.04233,0.141111 -0.02822,0.01411 -0.169334,0.01411 l -0.564444,-0.05644 q -1.058332,-0.09878 -1.382887,-0.09878 -1.199444,0 -1.763888,0.04233 -0.225778,0.02822 -0.493888,0.02822 -0.268111,0 -0.338667,0 -0.268111,0 -0.395111,-0.01411 l -0.04233,0.225778 q -0.02822,0.254 -0.02822,0.451555 0,0.169333 0.02822,0.395111 0.02822,0.225778 0.02822,0.395111 l 0.01411,1.679221 -0.01411,0.705555 q -0.01411,0.127 -0.01411,0.352777 0.183444,0.01411 0.536222,0.01411 0.296333,0.01411 0.917221,0.01411 l 0.762,0.01411 q 0.239889,0.01411 0.733777,0.01411 0.296333,0 0.776111,-0.02822 l 0.592666,-0.01411 q 0.338666,0 0.564444,0.01411 0.225777,0.01411 0.338666,0.01411 0.112889,0 0.127,0.04233 0.02822,0.04233 0.02822,0.183444 0,0.09878 -0.01411,0.211667 -0.01411,0.09878 -0.01411,0.225777 0,0.09878 -0.07055,0.141111 -0.07056,0.02822 -0.225778,0.02822 -0.155222,0 -0.254,-0.01411 -0.380999,-0.04233 -1.53811,-0.04233 -0.705555,0 -1.015999,0.01411 -0.239889,0.01411 -0.790222,0.01411 l -1.312332,-0.01411 q -0.225777,-0.01411 -0.536222,-0.01411 -0.197555,0 -0.268111,-0.04233 -0.05644,-0.05645 -0.05644,-0.169334 l 0.01411,-0.225777 q 0.01411,-0.05645 0.01411,-0.127 0,-0.04233 -0.01411,-0.197555 -0.01411,-0.169334 -0.01411,-0.606778 0,-0.423333 -0.02822,-1.382888 -0.04233,-0.790221 -0.04233,-1.523998 0,-0.310445 0.07055,-1.79211 0.01411,-0.296333 0.02822,-0.592666 0.01411,-0.296333 0.01411,-0.536222 0,-1.636888 -0.04233,-2.158998 -0.04233,-0.338667 0.409222,-0.338667 0.112889,0 0.366889,0.02822 0.225777,0.02822 0.338666,0.02822 l 0.888999,-0.02822 q 0.959555,-0.05644 1.481666,-0.05644 0.606777,0 1.707443,0.02822 0.352777,0.01411 0.747888,0.01411 0.169333,0 0.211667,0.08467 0.04233,0.08467 0.02822,0.183444 0,0.08467 0,0.112889 z"
       id="text35"
       style="font-size:14.1111px;line-height:0.9;font-family:Barrio;-inkscape-font-specification:Barrio;fill:url(#linearGradient1);stroke-miterlimit:2"
       transform="rotate(-5.1162924)"
       aria-label="charade" /></g></svg>
